<svg xmlns="http://www.w3.org/2000/svg" viewBox="0 0 240 180" width="240" height="180" fill="none">
  <defs>
    <linearGradient id="mc_box" x1="0" y1="0" x2="1" y2="1">
      <stop offset="0%" stop-color="#a855f7"/>
      <stop offset="100%" stop-color="#6366f1"/>
    </linearGradient>
    <linearGradient id="mc_gold" x1="0" y1="0" x2="1" y2="1">
      <stop offset="0%" stop-color="#fef08a"/>
      <stop offset="50%" stop-color="#eab308"/>
      <stop offset="100%" stop-color="#ca8a04"/>
    </linearGradient>
    <filter id="mc_sh">
      <feDropShadow dx="0" dy="10" stdDeviation="12" flood-color="#000" flood-opacity="0.55"/>
    </filter>
  </defs>
  <!-- 3D Gift Box -->
  <g transform="translate(55, 30)" filter="url(#mc_sh)">
    <!-- Main Box Body -->
    <rect x="15" y="45" width="100" height="85" rx="8" fill="url(#mc_box)" stroke="#c084fc" stroke-width="2"/>
    <rect x="58" y="45" width="16" height="85" fill="url(#mc_gold)"/>
    <rect x="15" y="80" width="100" height="16" fill="url(#mc_gold)"/>
    <!-- Lid -->
    <rect x="10" y="32" width="110" height="18" rx="5" fill="url(#mc_box)" stroke="#c084fc" stroke-width="2"/>
    <rect x="58" y="32" width="16" height="18" fill="url(#mc_gold)"/>
    <!-- Bow Ribbon Top -->
    <path d="M 65 32 C 45 5, 20 20, 60 30 Z" fill="url(#mc_gold)"/>
    <path d="M 65 32 C 85 5, 110 20, 70 30 Z" fill="url(#mc_gold)"/>
    <circle cx="65" cy="30" r="7" fill="url(#mc_gold)"/>
  </g>
  <!-- Floating Sparkles -->
  <polygon points="35,45 37,51 43,53 37,55 35,61 33,55 27,53 33,51" fill="#fde047"/>
  <polygon points="190,65 192,71 198,73 192,75 190,81 188,75 182,73 188,71" fill="#fde047"/>
</svg>